<svg width="1250" height="436" viewBox="0 0 1250 436" fill="none" xmlns="http://www.w3.org/2000/svg">
<path d="M855.743 62.1777V50.3182C855.743 39.3623 852.109 33.8843 844.841 33.8843C841.486 33.8843 838.859 35.1832 836.958 37.781C835.057 40.3788 834.106 44.1061 834.106 48.9628C834.106 50.4311 834.218 52.0124 834.442 53.7066C834.777 55.4008 835.504 57.208 836.622 59.1281C837.517 60.8223 838.859 62.8554 840.648 65.2273C842.437 67.4862 844.673 69.9146 847.357 72.5124C848.699 73.9807 850.208 75.5055 851.885 77.0868C853.451 78.781 855.24 80.5317 857.253 82.3388C863.291 87.8733 868.826 93.2948 873.858 98.6033C879.002 103.912 883.195 108.599 886.438 112.665C889.68 116.957 892.252 121.08 894.153 125.033C896.054 128.986 897.452 133.052 898.346 137.231C898.794 139.377 899.073 141.58 899.185 143.839C899.409 146.098 899.52 148.47 899.52 150.955C899.52 157.731 898.794 164 897.34 169.76C895.886 175.408 893.65 180.49 890.631 185.008C887.835 189.3 884.145 192.971 879.561 196.021C875.088 199.07 870.168 201.273 864.801 202.628C858.874 204.209 852.5 205 845.68 205C831.926 205 820.744 202.007 812.134 196.021C803.636 190.147 797.989 181.394 795.193 169.76C793.74 164.113 793.013 157.618 793.013 150.277V132.488H829.913V150.446C829.913 156.997 831.255 162.08 833.939 165.694C836.399 169.309 840.2 171.116 845.344 171.116C847.133 171.116 848.866 170.89 850.544 170.438C852.221 169.873 853.619 169.026 854.737 167.897C855.743 166.88 856.694 165.638 857.588 164.169C858.483 162.588 859.154 160.668 859.601 158.409C859.713 157.393 859.825 156.32 859.936 155.19C860.048 153.948 860.104 152.705 860.104 151.463C860.104 149.091 859.936 147.058 859.601 145.364C859.266 143.556 858.595 141.636 857.588 139.603C856.47 137.57 854.905 135.481 852.892 133.335C850.991 131.189 848.755 128.817 846.183 126.219C844.729 124.864 843.108 123.395 841.319 121.814C839.641 120.233 837.796 118.539 835.784 116.731C829.522 111.084 824.043 105.945 819.346 101.314C814.762 96.5702 810.848 91.9959 807.605 87.5909C804.362 83.2989 801.791 79.1763 799.89 75.2231C798.1 71.157 796.759 67.0344 795.864 62.8554C795.417 60.8223 795.081 58.6763 794.858 56.4174C794.746 54.1584 794.69 51.843 794.69 49.4711C794.69 43.259 795.305 37.4986 796.535 32.1901C797.877 26.7686 799.945 22.0248 802.741 17.9587C808.22 10.0523 816.159 4.7438 826.558 2.03305C831.702 0.677684 837.573 0 844.17 0C856.694 0 866.981 2.54132 875.032 7.62396C877.716 9.31817 880.567 11.9724 883.586 15.5868C886.605 19.2011 888.954 24.1143 890.631 30.3264C891.973 35.4091 892.644 41.0565 892.644 47.2686V62.1777H855.743Z" fill="#E7E7E7"/>
<path d="M914.668 203.306V1.69421H954.085V72.343H983.437V1.69421H1022.85V203.306H983.437V109.616H954.085V203.306H914.668Z" fill="#E7E7E7"/>
<path d="M1045.44 77.7645L1069.76 53.3678L1037.05 44.5578L1046.95 17.6198L1076.3 31.6818L1073.45 0H1101.96L1099.11 31.6818L1128.63 17.6198L1138.36 44.5578L1105.48 53.3678L1129.97 77.7645L1108 96.2314L1087.71 66.5826L1067.41 96.2314L1045.44 77.7645Z" fill="#E7E7E7"/>
<path d="M1178.77 203.306V38.9669H1147.74V1.69421H1249.22V38.9669H1218.19V203.306H1178.77Z" fill="#E7E7E7"/>
<path d="M792.271 436V230.996H832.755V302.834H862.903V230.996H903.387V436H862.903V340.733H832.755V436H792.271Z" fill="#E7E7E7"/>
<path d="M1010.14 436H923.999V230.996H1009.27V268.896H964.483V308.002H1005.83V345.902H964.483V398.1H1010.14V436Z" fill="#E7E7E7"/>
<path d="M1135.01 284.4C1135.01 294.622 1132.88 303.35 1128.63 310.586C1126.68 314.031 1124.27 317.075 1121.4 319.716C1118.64 322.358 1115.19 324.597 1111.06 326.435C1107.16 328.043 1102.96 329.076 1098.48 329.536V332.292C1102.62 332.292 1106.81 333.613 1111.06 336.254C1115.08 338.896 1118.24 342.399 1120.53 346.763C1121.11 347.911 1121.57 349.06 1121.91 350.208C1122.37 351.357 1122.77 352.505 1123.12 353.654L1143.62 436H1103.14L1079.19 349.347H1066.1V436H1025.61V230.996H1085.91C1091.42 230.996 1096.7 231.857 1101.76 233.58C1106.93 235.188 1111.58 237.6 1115.71 240.816C1119.85 244.146 1123.29 247.936 1126.05 252.186C1128.92 256.435 1131.16 261.316 1132.77 266.829C1134.26 272.456 1135.01 278.314 1135.01 284.4ZM1066.1 311.447H1075.57C1077.75 311.447 1079.82 311.16 1081.77 310.586C1083.84 310.012 1085.74 309.093 1087.46 307.829C1090.44 305.418 1092.57 301.972 1093.83 297.493C1094.29 295.541 1094.52 293.129 1094.52 290.258C1094.52 283.711 1092.86 278.543 1089.53 274.753C1086.2 270.848 1081.54 268.896 1075.57 268.896H1066.1V311.447Z" fill="#E7E7E7"/>
<path d="M1242.64 436H1156.5V230.996H1241.77V268.896H1196.98V308.002H1238.33V345.902H1196.98V398.1H1242.64V436Z" fill="#E7E7E7"/>
<path d="M0.55957 436V230.996H41.0435V302.834H71.1912V230.996H111.675V436H71.1912V340.733H41.0435V436H0.55957Z" fill="#E7E7E7"/>
<path d="M123.674 436L155.716 230.996H213.6L245.642 436H205.158L199.129 388.97H170.187L164.158 436H123.674ZM175.011 351.07H194.305L187.414 286.812C187.185 284.171 187.012 281.816 186.897 279.749C186.783 277.567 186.668 275.27 186.553 272.858C186.438 270.332 186.381 267.288 186.381 263.728H182.935V268.724C182.935 269.528 182.935 270.332 182.935 271.136C182.82 272.054 182.763 272.916 182.763 273.72C182.763 274.868 182.706 276.074 182.591 277.337C182.476 278.486 182.418 279.634 182.418 280.783C182.418 283.08 182.246 285.09 181.902 286.812L175.011 351.07Z" fill="#E7E7E7"/>
<path d="M257.622 230.996H317.917C333.192 230.996 345.194 236.681 353.922 248.051C358.057 253.449 361.272 260.11 363.569 268.035C365.866 275.959 367.015 284.802 367.015 294.565C367.015 302.145 366.326 309.265 364.948 315.926C363.569 322.473 361.387 328.445 358.401 333.843C355.53 339.011 352.142 343.375 348.237 346.935C344.447 350.496 339.911 353.252 334.628 355.204C329.574 357.042 324.004 357.961 317.917 357.961H298.106V436H257.622V230.996ZM298.106 320.061H307.581C309.648 320.061 311.715 319.774 313.783 319.199C315.85 318.51 317.745 317.304 319.468 315.582C321.076 313.974 322.339 312.251 323.258 310.414C324.291 308.576 325.153 306.164 325.842 303.178C326.071 301.915 326.244 300.594 326.359 299.216C326.473 297.723 326.531 296.172 326.531 294.565C326.531 291.578 326.244 288.765 325.669 286.123C325.21 283.367 324.406 280.898 323.258 278.715C322.109 276.648 320.788 274.925 319.295 273.547C317.917 272.054 316.194 270.848 314.127 269.93C312.29 269.241 310.108 268.896 307.581 268.896H298.106V320.061Z" fill="#E7E7E7"/>
<path d="M382.452 230.996H442.747C458.022 230.996 470.024 236.681 478.752 248.051C482.887 253.449 486.102 260.11 488.399 268.035C490.696 275.959 491.845 284.802 491.845 294.565C491.845 302.145 491.156 309.265 489.778 315.926C488.399 322.473 486.217 328.445 483.231 333.843C480.36 339.011 476.972 343.375 473.067 346.935C469.277 350.496 464.741 353.252 459.458 355.204C454.404 357.042 448.834 357.961 442.747 357.961H422.936V436H382.452V230.996ZM422.936 320.061H432.411C434.478 320.061 436.545 319.774 438.613 319.199C440.68 318.51 442.575 317.304 444.298 315.582C445.906 313.974 447.169 312.251 448.088 310.414C449.121 308.576 449.983 306.164 450.672 303.178C450.901 301.915 451.074 300.594 451.189 299.216C451.303 297.723 451.361 296.172 451.361 294.565C451.361 291.578 451.074 288.765 450.499 286.123C450.04 283.367 449.236 280.898 448.088 278.715C446.939 276.648 445.618 274.925 444.125 273.547C442.747 272.054 441.025 270.848 438.957 269.93C437.12 269.241 434.938 268.896 432.411 268.896H422.936V320.061Z" fill="#E7E7E7"/>
<path d="M593.418 436H507.282V230.996H592.557V268.896H547.766V308.002H589.111V345.902H547.766V398.1H593.418V436Z" fill="#E7E7E7"/>
<path d="M649.38 385.869V436H608.896V230.996H656.271L671.603 286.123C672.981 290.832 674.417 296.115 675.91 301.972C677.403 307.715 678.838 313.514 680.216 319.372C681.595 325.114 682.743 330.225 683.662 334.704C685.729 344.236 687.567 353.08 689.174 361.234C690.782 369.388 692.39 377.772 693.998 386.386C694.687 390.52 695.319 394.54 695.893 398.445C696.467 402.464 697.042 406.369 697.616 410.159H701.061C700.142 404.072 699.281 398.617 698.477 393.793C697.673 388.855 696.869 383.802 696.065 378.633C695.261 373.465 694.4 367.321 693.481 360.2C692.677 355.147 691.873 349.462 691.07 343.145C690.266 336.714 689.519 330.397 688.83 324.195C688.141 317.879 687.681 312.309 687.452 307.485C687.107 303.236 686.82 299.101 686.59 295.081C686.476 290.947 686.418 286.985 686.418 283.195V230.996H726.902V436H682.111L666.262 382.768C665.114 379.093 663.793 374.499 662.3 368.986C660.807 363.473 659.199 357.616 657.476 351.414C655.869 345.098 654.376 338.896 652.997 332.809C651.045 324.425 649.093 315.811 647.14 306.968C645.188 298.01 643.465 289.224 641.972 280.61C641.168 276.476 640.422 272.399 639.732 268.379C639.043 264.359 638.412 260.512 637.837 256.837H634.392C635.54 264.302 636.804 272.227 638.182 280.61C639.56 288.88 640.938 297.665 642.316 306.968C643.465 315.926 644.613 324.999 645.762 334.187C646.91 343.26 647.829 352.161 648.518 360.889C648.748 365.254 648.92 369.56 649.035 373.81C649.265 377.944 649.38 381.964 649.38 385.869Z" fill="#E7E7E7"/>
<path d="M190.077 96.062V121.306C190.077 130.342 188.456 139.039 185.213 147.397C181.971 155.642 177.442 163.266 171.627 170.269C165.813 177.271 158.992 183.371 151.164 188.566C143.337 193.762 134.783 197.771 125.502 200.595C115.997 203.532 106.157 205 95.9816 205C85.1351 205 74.9037 203.362 65.2872 200.087C55.6708 196.698 46.9489 191.955 39.1215 185.855C32.636 180.773 26.3182 174.109 20.1682 165.864C14.0181 157.618 9.26582 147.566 5.91125 135.707C2.78031 125.09 1.21484 114.021 1.21484 102.5C1.21484 90.6405 2.66849 79.6846 5.57579 69.6322C8.59491 59.4669 12.844 50.1488 18.3232 41.6777C24.4732 32.0771 31.6856 24.2837 39.9602 18.2975C48.3466 12.3113 56.6212 7.90633 64.784 5.08264C69.7041 3.50138 74.8477 2.25896 80.2151 1.35537C85.6942 0.451792 91.3411 0 97.1557 0C106.548 0 115.326 1.12948 123.489 3.38843C131.764 5.64738 139.535 8.97933 146.803 13.3843C153.401 17.4504 159.495 22.5895 165.086 28.8016C170.789 35.0138 175.485 42.1859 179.175 50.3182C180.964 54.2713 182.474 58.3939 183.704 62.6859C185.046 66.978 186.052 71.4959 186.723 76.2397H146.468C145.797 72.6253 144.455 68.8416 142.442 64.8884C140.542 60.8223 137.858 56.9821 134.391 53.3678C128.13 47.1556 120.526 42.9201 111.58 40.6612C106.996 39.5317 102.188 38.9669 97.1557 38.9669C90.782 38.9669 84.6319 39.9835 78.7055 42.0165C72.7791 43.9366 67.5236 46.7603 62.939 50.4876C53.4344 58.281 46.893 68.6722 43.3148 81.6612C41.5256 88.2121 40.6311 95.2713 40.6311 102.839C40.6311 110.745 41.5816 117.974 43.4825 124.525C45.4952 131.076 47.9553 136.554 50.8625 140.959C53.8817 145.815 57.6276 150.164 62.1004 154.004C66.685 157.844 72.1082 160.837 78.3701 162.983C84.1847 165.017 90.5024 166.033 97.3234 166.033C102.243 166.033 106.996 165.468 111.58 164.339C116.165 163.209 120.414 161.628 124.328 159.595C128.018 157.675 131.484 155.247 134.727 152.31C138.081 149.26 140.877 145.815 143.113 141.975C145.35 138.361 147.139 134.351 148.481 129.946H97.3234V96.062H190.077Z" fill="#E7E7E7"/>
<path d="M628.677 1.69421H682.518C696.272 1.69421 707.79 5.76033 717.071 13.8926C721.432 17.8457 725.177 22.8719 728.308 28.9711C731.551 35.0702 733.899 41.6777 735.353 48.7934C736.918 56.4738 737.701 64.8319 737.701 73.8678V131.132C737.701 140.507 736.918 148.921 735.353 156.376C733.787 163.831 731.439 170.438 728.308 176.198C725.177 182.185 721.432 187.154 717.071 191.107C712.71 194.948 707.566 197.941 701.64 200.087C695.937 202.233 689.563 203.306 682.518 203.306H628.677V1.69421ZM668.094 166.033H673.629C690.066 166.033 698.285 154.399 698.285 131.132V73.8678C698.285 50.6005 690.066 38.9669 673.629 38.9669H668.094V166.033Z" fill="#E7E7E7"/>
<path d="M199.232 101.314C199.232 90.1322 200.984 79.5716 204.489 69.6322C207.993 59.5799 212.91 50.2617 219.24 41.6777C225.457 33.2066 232.861 25.865 241.452 19.6529C250.156 13.4408 259.481 8.64049 269.428 5.25207C274.402 3.55786 279.545 2.25896 284.858 1.35537C290.284 0.451792 295.766 0 301.305 0C312.721 0 323.46 1.80716 333.52 5.42148C343.58 8.92286 352.793 13.6667 361.158 19.6529C370.766 26.7686 378.565 34.7314 384.556 43.5413C390.547 52.2383 395.012 60.8788 397.951 69.4628C399.647 74.5454 400.947 79.741 401.851 85.0496C402.755 90.3581 403.207 95.7796 403.207 101.314C403.207 112.383 401.455 123.169 397.951 133.674C394.56 144.178 389.756 153.778 383.539 162.475C377.209 171.059 369.692 178.57 360.988 185.008C352.397 191.333 343.185 196.19 333.351 199.579C323.064 203.193 312.382 205 301.305 205C290.001 205 279.263 203.193 269.089 199.579C258.916 195.964 249.647 191.051 241.282 184.839C232.804 178.514 225.4 171.116 219.07 162.645C212.853 154.174 207.993 144.573 204.489 133.843C202.793 128.76 201.493 123.508 200.589 118.087C199.685 112.552 199.232 106.961 199.232 101.314ZM239.078 101.653C239.078 108.543 240.152 115.32 242.299 121.983C244.447 128.647 247.386 134.521 251.116 139.603C255.186 145.251 259.82 150.051 265.02 154.004C270.22 157.844 275.815 160.725 281.806 162.645C288.136 164.904 294.692 166.033 301.474 166.033C308.256 166.033 314.756 164.96 320.973 162.814C327.19 160.555 332.842 157.449 337.929 153.496C343.015 149.656 347.48 145.081 351.324 139.773C355.167 134.351 358.106 128.421 360.14 121.983C361.158 118.821 361.949 115.545 362.514 112.157C363.079 108.769 363.362 105.267 363.362 101.653C363.362 94.989 362.288 88.4945 360.14 82.1694C357.993 75.7314 355.054 69.9711 351.324 64.8884C343.411 54.1584 333.238 46.5909 320.804 42.1859C314.587 40.0399 308.143 38.9669 301.474 38.9669C296.048 38.9669 290.171 39.8705 283.841 41.6777C277.51 43.3719 271.18 46.5344 264.85 51.1653C259.651 55.0055 255.073 59.5234 251.116 64.719C247.273 69.9146 244.334 75.6185 242.299 81.8306C241.282 84.9931 240.491 88.2686 239.926 91.657C239.361 94.9325 239.078 98.2645 239.078 101.653Z" fill="#E7E7E7"/>
<path d="M412.255 101.314C412.255 90.1322 414.007 79.5716 417.511 69.6322C421.015 59.5799 425.932 50.2617 432.262 41.6777C438.479 33.2066 445.883 25.865 454.474 19.6529C463.178 13.4408 472.504 8.64049 482.451 5.25207C487.424 3.55786 492.568 2.25896 497.88 1.35537C503.306 0.451792 508.788 0 514.327 0C525.744 0 536.482 1.80716 546.543 5.42148C556.603 8.92286 565.815 13.6667 574.18 19.6529C583.788 26.7686 591.588 34.7314 597.579 43.5413C603.57 52.2383 608.035 60.8788 610.974 69.4628C612.669 74.5454 613.969 79.741 614.873 85.0496C615.778 90.3581 616.23 95.7796 616.23 101.314C616.23 112.383 614.478 123.169 610.974 133.674C607.583 144.178 602.779 153.778 596.562 162.475C590.231 171.059 582.714 178.57 574.011 185.008C565.42 191.333 556.207 196.19 546.373 199.579C536.087 203.193 525.405 205 514.327 205C503.023 205 492.285 203.193 482.112 199.579C471.938 195.964 462.669 191.051 454.305 184.839C445.827 178.514 438.423 171.116 432.093 162.645C425.876 154.174 421.015 144.573 417.511 133.843C415.816 128.76 414.516 123.508 413.611 118.087C412.707 112.552 412.255 106.961 412.255 101.314ZM452.1 101.653C452.1 108.543 453.174 115.32 455.322 121.983C457.47 128.647 460.409 134.521 464.139 139.603C468.208 145.251 472.843 150.051 478.042 154.004C483.242 157.844 488.837 160.725 494.828 162.645C501.158 164.904 507.714 166.033 514.497 166.033C521.279 166.033 527.779 164.96 533.996 162.814C540.213 160.555 545.864 157.449 550.951 153.496C556.038 149.656 560.503 145.081 564.346 139.773C568.189 134.351 571.128 128.421 573.163 121.983C574.18 118.821 574.971 115.545 575.537 112.157C576.102 108.769 576.384 105.267 576.384 101.653C576.384 94.989 575.311 88.4945 573.163 82.1694C571.015 75.7314 568.076 69.9711 564.346 64.8884C556.433 54.1584 546.26 46.5909 533.826 42.1859C527.609 40.0399 521.166 38.9669 514.497 38.9669C509.071 38.9669 503.193 39.8705 496.863 41.6777C490.533 43.3719 484.203 46.5344 477.873 51.1653C472.673 55.0055 468.095 59.5234 464.139 64.719C460.296 69.9146 457.357 75.6185 455.322 81.8306C454.305 84.9931 453.513 88.2686 452.948 91.657C452.383 94.9325 452.1 98.2645 452.1 101.653Z" fill="#E7E7E7"/>
</svg>
